<?xml version="1.0" encoding="UTF-8"?>
<svg xmlns="http://www.w3.org/2000/svg" xmlns:xlink="http://www.w3.org/1999/xlink" width="155px" height="21px" viewBox="0 0 156 21" version="1.1">
<g id="surface1">
<path style=" stroke:none;fill-rule:nonzero;fill:rgb(0%,73.725492%,73.725492%);fill-opacity:1;" d="M 0 9.238281 L 0 6.65625 L 9.054688 6.65625 L 9.054688 0.140625 L 18.105469 9.238281 Z M 0 9.238281 "/>
<path style=" stroke:none;fill-rule:nonzero;fill:rgb(0%,73.725492%,73.725492%);fill-opacity:1;" d="M 0 11.820312 L 9.054688 20.921875 L 9.054688 14.40625 L 18.105469 14.40625 L 18.105469 11.820312 Z M 0 11.820312 "/>
<path style=" stroke:none;fill-rule:nonzero;fill:rgb(0%,17.647059%,24.705882%);fill-opacity:1;" d="M 25.613281 5.472656 L 30.371094 5.472656 C 31.472656 5.472656 32.449219 5.679688 33.304688 6.09375 C 34.15625 6.507812 34.820312 7.097656 35.289062 7.855469 C 35.761719 8.617188 35.992188 9.511719 35.992188 10.53125 C 35.992188 11.554688 35.761719 12.445312 35.289062 13.203125 C 34.820312 13.964844 34.160156 14.554688 33.304688 14.96875 C 32.453125 15.382812 31.472656 15.589844 30.371094 15.589844 L 25.613281 15.589844 Z M 30.257812 13.308594 C 31.121094 13.308594 31.8125 13.0625 32.332031 12.570312 C 32.855469 12.078125 33.117188 11.402344 33.117188 10.535156 C 33.117188 9.667969 32.855469 8.988281 32.332031 8.496094 C 31.808594 8.003906 31.121094 7.761719 30.257812 7.761719 L 28.457031 7.761719 L 28.457031 13.3125 L 30.257812 13.3125 Z M 30.257812 13.308594 "/>
<path style=" stroke:none;fill-rule:nonzero;fill:rgb(0%,17.647059%,24.705882%);fill-opacity:1;" d="M 43.371094 13.625 L 39.113281 13.625 L 38.324219 15.589844 L 35.421875 15.589844 L 39.863281 5.46875 L 42.667969 5.46875 L 47.125 15.589844 L 44.164062 15.589844 Z M 42.535156 11.515625 L 41.242188 8.277344 L 39.945312 11.515625 Z M 42.535156 11.515625 "/>
<path style=" stroke:none;fill-rule:nonzero;fill:rgb(0%,17.647059%,24.705882%);fill-opacity:1;" d="M 48.707031 7.742188 L 45.613281 7.742188 L 45.613281 5.472656 L 54.628906 5.472656 L 54.628906 7.742188 L 51.554688 7.742188 L 51.554688 15.589844 L 48.707031 15.589844 Z M 48.707031 7.742188 "/>
<path style=" stroke:none;fill-rule:nonzero;fill:rgb(0%,17.647059%,24.705882%);fill-opacity:1;" d="M 61.085938 13.625 L 56.828125 13.625 L 56.039062 15.589844 L 53.136719 15.589844 L 57.578125 5.46875 L 60.382812 5.46875 L 64.839844 15.589844 L 61.875 15.589844 Z M 60.253906 11.515625 L 58.960938 8.277344 L 57.664062 11.515625 Z M 60.253906 11.515625 "/>
<path style=" stroke:none;fill-rule:nonzero;fill:rgb(0%,73.725492%,73.725492%);fill-opacity:1;" d="M 67.535156 15.121094 C 66.699219 14.671875 66.039062 14.050781 65.558594 13.25 C 65.082031 12.449219 64.839844 11.542969 64.839844 10.53125 C 64.839844 9.523438 65.082031 8.617188 65.558594 7.816406 C 66.039062 7.015625 66.699219 6.390625 67.535156 5.941406 C 68.375 5.496094 69.320312 5.269531 70.375 5.269531 C 71.292969 5.269531 72.125 5.4375 72.863281 5.765625 C 73.601562 6.089844 74.214844 6.5625 74.707031 7.179688 L 72.894531 8.828125 C 72.242188 8.039062 71.449219 7.640625 70.519531 7.640625 C 69.976562 7.640625 69.488281 7.761719 69.0625 8.003906 C 68.636719 8.242188 68.304688 8.582031 68.070312 9.019531 C 67.835938 9.460938 67.71875 9.960938 67.71875 10.53125 C 67.71875 11.101562 67.835938 11.605469 68.070312 12.042969 C 68.304688 12.484375 68.636719 12.820312 69.0625 13.0625 C 69.488281 13.300781 69.976562 13.421875 70.519531 13.421875 C 71.449219 13.421875 72.242188 13.027344 72.894531 12.234375 L 74.707031 13.882812 C 74.214844 14.5 73.601562 14.972656 72.863281 15.300781 C 72.128906 15.628906 71.296875 15.792969 70.375 15.792969 C 69.320312 15.792969 68.375 15.570312 67.535156 15.121094 Z M 67.535156 15.121094 "/>
<path style=" stroke:none;fill-rule:nonzero;fill:rgb(0%,73.725492%,73.725492%);fill-opacity:1;" d="M 77.691406 15.113281 C 76.839844 14.660156 76.175781 14.03125 75.691406 13.234375 C 75.207031 12.433594 74.964844 11.535156 74.964844 10.53125 C 74.964844 9.53125 75.207031 8.628906 75.691406 7.828125 C 76.175781 7.027344 76.839844 6.402344 77.691406 5.953125 C 78.539062 5.5 79.492188 5.269531 80.558594 5.269531 C 81.621094 5.269531 82.578125 5.5 83.425781 5.953125 C 84.273438 6.40625 84.9375 7.03125 85.421875 7.828125 C 85.90625 8.628906 86.148438 9.53125 86.148438 10.53125 C 86.148438 11.535156 85.90625 12.433594 85.421875 13.234375 C 84.9375 14.035156 84.273438 14.664062 83.425781 15.113281 C 82.574219 15.566406 81.621094 15.792969 80.558594 15.792969 C 79.492188 15.792969 78.535156 15.566406 77.691406 15.113281 Z M 81.9375 13.0625 C 82.351562 12.820312 82.675781 12.484375 82.914062 12.042969 C 83.15625 11.605469 83.273438 11.101562 83.273438 10.53125 C 83.273438 9.964844 83.15625 9.460938 82.914062 9.019531 C 82.675781 8.582031 82.351562 8.242188 81.9375 8.003906 C 81.527344 7.761719 81.066406 7.640625 80.558594 7.640625 C 80.046875 7.640625 79.589844 7.761719 79.175781 8.003906 C 78.765625 8.242188 78.4375 8.582031 78.199219 9.019531 C 77.960938 9.460938 77.839844 9.960938 77.839844 10.53125 C 77.839844 11.101562 77.960938 11.605469 78.199219 12.042969 C 78.4375 12.484375 78.765625 12.820312 79.175781 13.0625 C 79.589844 13.300781 80.046875 13.421875 80.558594 13.421875 C 81.066406 13.421875 81.527344 13.300781 81.9375 13.0625 Z M 81.9375 13.0625 "/>
<path style=" stroke:none;fill-rule:nonzero;fill:rgb(0%,73.725492%,73.725492%);fill-opacity:1;" d="M 91.6875 12.902344 L 90.132812 12.902344 L 90.132812 15.589844 L 87.285156 15.589844 L 87.285156 5.472656 L 91.886719 5.472656 C 92.796875 5.472656 93.589844 5.625 94.261719 5.929688 C 94.929688 6.230469 95.449219 6.664062 95.8125 7.230469 C 96.179688 7.792969 96.359375 8.457031 96.359375 9.21875 C 96.359375 9.976562 96.1875 10.589844 95.847656 11.132812 C 95.511719 11.675781 95.023438 12.101562 94.390625 12.410156 L 96.5625 15.589844 L 93.515625 15.589844 L 91.6875 12.898438 Z M 93.039062 8.117188 C 92.738281 7.855469 92.300781 7.726562 91.714844 7.726562 L 90.132812 7.726562 L 90.132812 10.691406 L 91.714844 10.691406 C 92.300781 10.691406 92.738281 10.5625 93.039062 10.308594 C 93.335938 10.054688 93.484375 9.691406 93.484375 9.21875 C 93.484375 8.742188 93.335938 8.378906 93.039062 8.117188 Z M 93.039062 8.117188 "/>
<path style=" stroke:none;fill-rule:nonzero;fill:rgb(0%,73.725492%,73.725492%);fill-opacity:1;" d="M 105.648438 13.378906 L 105.648438 15.589844 L 97.566406 15.589844 L 97.566406 5.472656 L 105.460938 5.472656 L 105.460938 7.683594 L 100.382812 7.683594 L 100.382812 9.386719 L 104.855469 9.386719 L 104.855469 11.527344 L 100.382812 11.527344 L 100.382812 13.375 L 105.644531 13.375 Z M 105.648438 13.378906 "/>
<path style=" stroke:none;fill-rule:nonzero;fill:rgb(0%,73.725492%,73.725492%);fill-opacity:1;" d="M 106.402344 6.570312 L 106.265625 6.570312 L 106.265625 5.582031 L 105.902344 5.582031 L 105.902344 5.46875 L 106.769531 5.46875 L 106.769531 5.582031 L 106.40625 5.582031 L 106.40625 6.570312 Z M 106.402344 6.570312 "/>
<path style=" stroke:none;fill-rule:nonzero;fill:rgb(0%,73.725492%,73.725492%);fill-opacity:1;" d="M 107.046875 5.691406 L 107.046875 6.570312 L 106.910156 6.570312 L 106.910156 5.472656 L 107.058594 5.472656 L 107.429688 6.234375 L 107.800781 5.472656 L 107.953125 5.472656 L 107.953125 6.570312 L 107.816406 6.570312 L 107.816406 5.691406 L 107.480469 6.378906 L 107.390625 6.378906 L 107.050781 5.691406 Z M 107.046875 5.691406 "/>
<path style=" stroke:none;fill-rule:nonzero;fill:rgb(0%,17.647059%,24.705882%);fill-opacity:1;" d="M 111.730469 0.0625 L 112.136719 0.0625 L 112.136719 20.9375 L 111.730469 20.9375 Z M 111.730469 0.0625 "/>
<path style=" stroke:none;fill-rule:nonzero;fill:rgb(0%,17.647059%,24.705882%);fill-opacity:1;" d="M 127.292969 9.070312 C 127.292969 11.417969 125.546875 12.875 122.75 12.875 L 120.644531 12.875 L 120.644531 15.773438 L 118.222656 15.773438 L 118.222656 5.253906 L 122.75 5.253906 C 125.546875 5.253906 127.292969 6.710938 127.292969 9.070312 Z M 124.839844 9.070312 C 124.839844 7.914062 124.09375 7.238281 122.613281 7.238281 L 120.640625 7.238281 L 120.640625 10.890625 L 122.613281 10.890625 C 124.09375 10.890625 124.839844 10.214844 124.839844 9.070312 Z M 124.839844 9.070312 "/>
<path style=" stroke:none;fill-rule:nonzero;fill:rgb(0%,17.647059%,24.705882%);fill-opacity:1;" d="M 136.722656 4.621094 L 139.054688 4.621094 L 139.054688 15.769531 L 136.722656 15.769531 Z M 136.722656 4.621094 "/>
<path style=" stroke:none;fill-rule:nonzero;fill:rgb(0%,17.647059%,24.705882%);fill-opacity:1;" d="M 136.054688 7.6875 L 136.054688 15.773438 L 133.84375 15.773438 L 133.84375 14.8125 C 133.230469 15.515625 132.332031 15.894531 131.34375 15.894531 C 129.328125 15.894531 127.90625 14.75 127.90625 12.257812 L 127.90625 7.691406 L 130.238281 7.691406 L 130.238281 11.914062 C 130.238281 13.265625 130.839844 13.867188 131.867188 13.867188 C 132.898438 13.867188 133.722656 13.175781 133.722656 11.6875 L 133.722656 7.691406 L 136.054688 7.691406 Z M 136.054688 7.6875 "/>
<path style=" stroke:none;fill-rule:nonzero;fill:rgb(0%,17.647059%,24.705882%);fill-opacity:1;" d="M 139.570312 15.019531 L 140.347656 13.339844 C 141.0625 13.804688 142.15625 14.121094 143.140625 14.121094 C 144.21875 14.121094 144.621094 13.835938 144.621094 13.382812 C 144.621094 12.058594 139.765625 13.414062 139.765625 10.183594 C 139.765625 8.648438 141.140625 7.570312 143.484375 7.570312 C 144.589844 7.570312 145.820312 7.824219 146.582031 8.273438 L 145.804688 9.941406 C 145.011719 9.492188 144.222656 9.339844 143.488281 9.339844 C 142.441406 9.339844 141.992188 9.671875 141.992188 10.089844 C 141.992188 11.472656 146.851562 10.136719 146.851562 13.320312 C 146.851562 14.820312 145.460938 15.886719 143.054688 15.886719 C 141.691406 15.886719 140.316406 15.511719 139.570312 15.019531 Z M 139.570312 15.019531 "/>
<path style=" stroke:none;fill-rule:nonzero;fill:rgb(0%,17.647059%,24.705882%);fill-opacity:1;" d="M 156 12.660156 C 156 14.644531 154.234375 15.890625 151.578125 15.890625 C 148.917969 15.890625 147.179688 14.644531 147.179688 12.660156 C 147.179688 11.535156 147.761719 10.695312 148.765625 10.183594 C 147.988281 9.699219 147.554688 8.964844 147.554688 8.019531 C 147.554688 6.171875 149.199219 5.015625 151.574219 5.015625 C 153.949219 5.015625 155.625 6.167969 155.625 8.019531 C 155.625 8.964844 155.175781 9.699219 154.398438 10.183594 C 155.414062 10.695312 156 11.535156 156 12.660156 Z M 151.601562 9.699219 C 151.628906 9.699219 151.65625 9.691406 151.683594 9.675781 L 152.816406 9.132812 C 152.875 9.105469 152.921875 9.050781 152.933594 8.988281 L 153.214844 7.765625 C 153.226562 7.707031 153.214844 7.648438 153.183594 7.601562 C 153.179688 7.59375 153.175781 7.589844 153.171875 7.582031 L 152.386719 6.601562 C 152.34375 6.554688 152.285156 6.523438 152.214844 6.523438 L 150.957031 6.523438 C 150.890625 6.523438 150.832031 6.554688 150.789062 6.601562 L 150.003906 7.582031 C 149.960938 7.632812 149.949219 7.699219 149.960938 7.765625 L 150.242188 8.988281 C 150.257812 9.050781 150.300781 9.105469 150.359375 9.132812 L 151.492188 9.675781 C 151.527344 9.691406 151.5625 9.699219 151.597656 9.699219 Z M 151.578125 11.003906 C 151.550781 11.003906 151.523438 11.011719 151.496094 11.027344 L 150.363281 11.570312 C 150.304688 11.597656 150.257812 11.652344 150.246094 11.714844 L 149.96875 12.9375 C 149.953125 12.996094 149.96875 13.054688 149.996094 13.105469 C 150 13.109375 150.007812 13.113281 150.007812 13.121094 L 150.792969 14.101562 C 150.835938 14.148438 150.898438 14.179688 150.964844 14.179688 L 152.222656 14.179688 C 152.289062 14.179688 152.351562 14.148438 152.390625 14.101562 L 153.175781 13.121094 C 153.21875 13.070312 153.234375 13.003906 153.21875 12.9375 L 152.9375 11.714844 C 152.921875 11.652344 152.878906 11.597656 152.820312 11.570312 L 151.6875 11.027344 C 151.652344 11.011719 151.617188 11.003906 151.582031 11.003906 Z M 151.578125 11.003906 "/>
<path style=" stroke:none;fill-rule:nonzero;fill:rgb(0%,73.725492%,73.725492%);fill-opacity:1;" d="M 151.597656 8.996094 C 151.617188 8.996094 151.628906 8.992188 151.644531 8.984375 L 152.277344 8.683594 C 152.3125 8.664062 152.335938 8.636719 152.34375 8.601562 L 152.496094 7.917969 C 152.507812 7.886719 152.496094 7.855469 152.480469 7.828125 C 152.480469 7.824219 152.476562 7.820312 152.476562 7.816406 L 152.039062 7.273438 C 152.015625 7.246094 151.980469 7.226562 151.945312 7.226562 L 151.242188 7.226562 C 151.207031 7.226562 151.167969 7.246094 151.148438 7.273438 L 150.710938 7.816406 C 150.6875 7.847656 150.679688 7.886719 150.6875 7.917969 L 150.84375 8.601562 C 150.851562 8.636719 150.878906 8.667969 150.90625 8.683594 L 151.539062 8.984375 C 151.558594 8.992188 151.578125 9 151.597656 8.996094 Z M 151.597656 8.996094 "/>
<path style=" stroke:none;fill-rule:nonzero;fill:rgb(95.686275%,72.941178%,0%);fill-opacity:1;" d="M 151.585938 11.707031 C 151.566406 11.707031 151.554688 11.714844 151.539062 11.71875 L 150.90625 12.019531 C 150.871094 12.039062 150.847656 12.066406 150.839844 12.101562 L 150.683594 12.785156 C 150.675781 12.816406 150.683594 12.847656 150.703125 12.878906 C 150.703125 12.878906 150.707031 12.882812 150.707031 12.886719 L 151.144531 13.429688 C 151.167969 13.460938 151.203125 13.476562 151.238281 13.476562 L 151.941406 13.476562 C 151.976562 13.476562 152.011719 13.460938 152.035156 13.429688 L 152.472656 12.886719 C 152.496094 12.859375 152.503906 12.816406 152.496094 12.785156 L 152.339844 12.101562 C 152.332031 12.066406 152.304688 12.035156 152.273438 12.019531 L 151.644531 11.71875 C 151.625 11.710938 151.605469 11.703125 151.585938 11.707031 Z M 151.585938 11.707031 "/>
</g>
</svg>
